REM DIRINDEX 1\3,1\4,1\5,1\6,1\2\7,1\2\8,1\2\9,1\10
REM DIRNAME cjc056,folder01,folder02,folder03,folder04,folder05,folder06,folder07,folder08,folder09
TITLE ""
FILE "2-23 Level 5-709-742.mp3" MP3
  TRACK 01 AUDIO
    TITLE "0:"
    INDEX 01 00:00:00
  TRACK 02 AUDIO
    TITLE "7:cjc056_2526"
    INDEX 01 00:00:07
  TRACK 03 AUDIO
    TITLE "0:"
    INDEX 01 00:01:21
  TRACK 04 AUDIO
    TITLE "8:cjc056_2527"
    INDEX 01 00:01:26
  TRACK 05 AUDIO
    TITLE "0:"
    INDEX 01 00:02:38
  TRACK 06 AUDIO
    TITLE "9:cjc056_2528"
    INDEX 01 00:02:51
  TRACK 07 AUDIO
    TITLE "0:"
    INDEX 01 00:05:16
  TRACK 08 AUDIO
    TITLE "7:cjc056_2529"
    INDEX 01 00:05:67
  TRACK 09 AUDIO
    TITLE "0:"
    INDEX 01 00:06:61
  TRACK 10 AUDIO
    TITLE "8:cjc056_2530"
    INDEX 01 00:07:00
  TRACK 11 AUDIO
    TITLE "0:"
    INDEX 01 00:08:05
  TRACK 12 AUDIO
    TITLE "9:cjc056_2531"
    INDEX 01 00:08:17
  TRACK 13 AUDIO
    TITLE "0:"
    INDEX 01 00:10:27
  TRACK 14 AUDIO
    TITLE "7:cjc056_2532"
    INDEX 01 00:11:03
  TRACK 15 AUDIO
    TITLE "0:"
    INDEX 01 00:12:11
  TRACK 16 AUDIO
    TITLE "8:cjc056_2533"
    INDEX 01 00:12:22
  TRACK 17 AUDIO
    TITLE "0:"
    INDEX 01 00:13:71
  TRACK 18 AUDIO
    TITLE "9:cjc056_2534"
    INDEX 01 00:14:06
  TRACK 19 AUDIO
    TITLE "0:"
    INDEX 01 00:17:35
  TRACK 20 AUDIO
    TITLE "7:cjc056_2535"
    INDEX 01 00:18:13
  TRACK 21 AUDIO
    TITLE "0:"
    INDEX 01 00:19:24
  TRACK 22 AUDIO
    TITLE "8:cjc056_2536"
    INDEX 01 00:19:38
  TRACK 23 AUDIO
    TITLE "0:"
    INDEX 01 00:20:61
  TRACK 24 AUDIO
    TITLE "9:cjc056_2537"
    INDEX 01 00:20:71
  TRACK 25 AUDIO
    TITLE "0:"
    INDEX 01 00:23:38
  TRACK 26 AUDIO
    TITLE "7:cjc056_2538"
    INDEX 01 00:24:16
  TRACK 27 AUDIO
    TITLE "0:"
    INDEX 01 00:25:21
  TRACK 28 AUDIO
    TITLE "8:cjc056_2539"
    INDEX 01 00:25:33
  TRACK 29 AUDIO
    TITLE "0:"
    INDEX 01 00:26:58
  TRACK 30 AUDIO
    TITLE "9:cjc056_2540"
    INDEX 01 00:26:71
  TRACK 31 AUDIO
    TITLE "0:"
    INDEX 01 00:30:06
  TRACK 32 AUDIO
    TITLE "7:cjc056_2541"
    INDEX 01 00:30:57
  TRACK 33 AUDIO
    TITLE "0:"
    INDEX 01 00:31:65
  TRACK 34 AUDIO
    TITLE "8:cjc056_2542"
    INDEX 01 00:32:01
  TRACK 35 AUDIO
    TITLE "0:"
    INDEX 01 00:33:22
  TRACK 36 AUDIO
    TITLE "9:cjc056_2543"
    INDEX 01 00:33:32
  TRACK 37 AUDIO
    TITLE "0:"
    INDEX 01 00:35:57
  TRACK 38 AUDIO
    TITLE "7:cjc056_2544"
    INDEX 01 00:36:35
  TRACK 39 AUDIO
    TITLE "0:"
    INDEX 01 00:37:38
  TRACK 40 AUDIO
    TITLE "8:cjc056_2545"
    INDEX 01 00:37:54
  TRACK 41 AUDIO
    TITLE "0:"
    INDEX 01 00:39:05
  TRACK 42 AUDIO
    TITLE "9:cjc056_2546"
    INDEX 01 00:39:17
  TRACK 43 AUDIO
    TITLE "0:"
    INDEX 01 00:41:00
  TRACK 44 AUDIO
    TITLE "7:cjc056_2547"
    INDEX 01 00:41:51
  TRACK 45 AUDIO
    TITLE "0:"
    INDEX 01 00:42:61
  TRACK 46 AUDIO
    TITLE "8:cjc056_2548"
    INDEX 01 00:42:72
  TRACK 47 AUDIO
    TITLE "0:"
    INDEX 01 00:44:34
  TRACK 48 AUDIO
    TITLE "9:cjc056_2549"
    INDEX 01 00:44:46
  TRACK 49 AUDIO
    TITLE "0:"
    INDEX 01 00:46:39
  TRACK 50 AUDIO
    TITLE "7:cjc056_2550"
    INDEX 01 00:47:13
  TRACK 51 AUDIO
    TITLE "0:"
    INDEX 01 00:48:02
  TRACK 52 AUDIO
    TITLE "8:cjc056_2551"
    INDEX 01 00:48:16
  TRACK 53 AUDIO
    TITLE "0:"
    INDEX 01 00:49:20
  TRACK 54 AUDIO
    TITLE "9:cjc056_2552"
    INDEX 01 00:49:33
  TRACK 55 AUDIO
    TITLE "0:"
    INDEX 01 00:51:36
  TRACK 56 AUDIO
    TITLE "7:cjc056_2553"
    INDEX 01 00:52:12
  TRACK 57 AUDIO
    TITLE "0:"
    INDEX 01 00:53:29
  TRACK 58 AUDIO
    TITLE "8:cjc056_2554"
    INDEX 01 00:53:43
  TRACK 59 AUDIO
    TITLE "0:"
    INDEX 01 00:55:61
  TRACK 60 AUDIO
    TITLE "9:cjc056_2555"
    INDEX 01 00:56:00
  TRACK 61 AUDIO
    TITLE "0:"
    INDEX 01 00:58:44
  TRACK 62 AUDIO
    TITLE "7:cjc056_2556"
    INDEX 01 00:59:20
  TRACK 63 AUDIO
    TITLE "0:"
    INDEX 01 01:00:41
  TRACK 64 AUDIO
    TITLE "8:cjc056_2557"
    INDEX 01 01:00:55
  TRACK 65 AUDIO
    TITLE "0:"
    INDEX 01 01:02:32
  TRACK 66 AUDIO
    TITLE "9:cjc056_2558"
    INDEX 01 01:02:46
  TRACK 67 AUDIO
    TITLE "0:"
    INDEX 01 01:04:66
  TRACK 68 AUDIO
    TITLE "7:cjc056_2559"
    INDEX 01 01:05:40
  TRACK 69 AUDIO
    TITLE "0:"
    INDEX 01 01:06:47
  TRACK 70 AUDIO
    TITLE "8:cjc056_2560"
    INDEX 01 01:06:61
  TRACK 71 AUDIO
    TITLE "0:"
    INDEX 01 01:08:25
  TRACK 72 AUDIO
    TITLE "9:cjc056_2561"
    INDEX 01 01:08:38
  TRACK 73 AUDIO
    TITLE "0:"
    INDEX 01 01:10:35
